<?xml version="1.0" encoding="UTF-8"?>
<svg width="508px" height="508px" viewBox="0 0 508 508" version="1.1" xmlns="http://www.w3.org/2000/svg" xmlns:xlink="http://www.w3.org/1999/xlink">
    <title>back</title>
    <defs>
        <circle id="path-1" cx="254" cy="254" r="235"></circle>
    </defs>
    <g id="rhum" stroke="none" stroke-width="1" fill="none" fill-rule="evenodd">
        <mask id="mask-2" fill="white">
            <use xlink:href="#path-1"></use>
        </mask>
        <g id="Mask"></g>
        <g id="polygons" mask="url(#mask-2)">
            <g transform="translate(9.500000, -51.000000)" id="Triangle">
                <polygon fill="#147EA6" transform="translate(183.000000, 485.500000) rotate(-90.000000) translate(-183.000000, -485.500000) " points="183 423 307.5 548 259.182972 548 58.5 548"></polygon>
                <polygon fill="#1788B3" transform="translate(183.000000, 364.000000) rotate(-270.000000) translate(-183.000000, -364.000000) " points="183 303 304.5 425 61.5 425"></polygon>
                <polygon fill="#CB0806" transform="translate(61.000000, 365.000000) rotate(-90.000000) translate(-61.000000, -365.000000) " points="61 304 182.5 426 -60.5 426"></polygon>
                <polygon fill="#FF0000" transform="translate(61.000000, 122.000000) rotate(-90.000000) translate(-61.000000, -122.000000) " points="61 61 182.5 183 -60.5 183"></polygon>
                <polygon fill="#E10709" transform="translate(61.098096, 243.522548) rotate(-270.000000) translate(-61.098096, -243.522548) " points="61.0980957 182.522548 182.598096 304.522548 -60.4019043 304.522548"></polygon>
                <polygon fill="#2A8735" transform="translate(426.000000, 486.000000) rotate(-90.000000) translate(-426.000000, -486.000000) " points="426 425 547.5 547 304.5 547"></polygon>
                <polygon fill="#A7080A" transform="translate(62.000000, 487.000000) rotate(-270.000000) translate(-62.000000, -487.000000) " points="62 426 183.5 548 -59.5 548"></polygon>
                <polygon fill="#A7080A" transform="translate(122.000000, 547.000000) rotate(-360.000000) translate(-122.000000, -547.000000) " points="122 486 243.5 608 0.5 608"></polygon>
                <polygon fill="#109ED3" transform="translate(183.000000, 243.000000) rotate(-90.000000) translate(-183.000000, -243.000000) " points="183 182 304.5 304 61.5 304"></polygon>
                <polygon fill="#10B0EC" transform="translate(183.000000, 122.000000) rotate(-270.000000) translate(-183.000000, -122.000000) " points="183 61 304.5 183 61.5 183"></polygon>
                <polygon fill="#10B0EC" transform="translate(243.834935, 61.780993) rotate(-180.000000) translate(-243.834935, -61.780993) " points="243.834935 0.780992746 365.334935 122.780993 122.334935 122.780993"></polygon>
                <polygon fill="#CDB009" transform="translate(366.000000, 547.000000) rotate(-360.000000) translate(-366.000000, -547.000000) " points="366 486 487.5 608 244.5 608"></polygon>
                <polygon fill="#F4D002" transform="translate(305.000000, 243.000000) rotate(-270.000000) translate(-305.000000, -243.000000) " points="305 182 426.5 304 183.5 304"></polygon>
                <polygon fill="#F8DA2C" transform="translate(305.000000, 122.000000) rotate(-90.000000) translate(-305.000000, -122.000000) " points="305 61 426.5 183 183.5 183"></polygon>
                <polygon fill="#279D34" transform="translate(427.000000, 243.000000) rotate(-90.000000) translate(-427.000000, -243.000000) " points="427 182 548.5 304 305.5 304"></polygon>
                <polygon fill="#D9BA06" transform="translate(305.097241, 364.379525) rotate(-90.000000) translate(-305.097241, -364.379525) " points="305.097241 303.379525 426.597241 425.379525 183.597241 425.379525"></polygon>
                <polygon fill="#32B240" transform="translate(427.000000, 122.000000) rotate(-270.000000) translate(-427.000000, -122.000000) " points="427 61 548.5 183 305.5 183"></polygon>
                <polygon fill="#2A8735" transform="translate(427.012082, 364.513013) rotate(-270.000000) translate(-427.012082, -364.513013) " points="427.012082 303.513013 548.512082 425.513013 305.512082 425.513013"></polygon>
                <polygon fill="#CDB009" transform="translate(305.279749, 486.000000) rotate(-270.000000) translate(-305.279749, -486.000000) " points="305.279749 425 426.779749 547 183.779749 547"></polygon>
            </g>
        </g>
        <path d="M305.905958,209.281805 L280.594622,189.230172 C281.877199,185.601516 283.037253,179.596336 283.037253,169.745273 C283.037253,155.282523 280.017854,143.019273 277.439666,135.183555 C279.07808,133.732352 280.117566,131.62493 280.117566,129.276289 L280.117566,95.9174219 C280.117566,91.5514922 276.547468,88 272.159465,88 L233.841186,88 C229.453184,88 225.883737,91.5521406 225.883737,95.9174219 L225.883737,129.276289 C225.883737,131.625578 226.923224,133.732352 228.560985,135.183555 C225.982798,143.019273 222.963399,155.282523 222.963399,169.745273 C222.963399,179.596336 224.124105,185.601516 225.406681,189.230172 L200.095345,209.281805 C194.315278,213.860422 191,220.702734 191,228.05407 L191,403.808516 C191,412.736852 198.30052,420 207.273994,420 L298.726658,420 C307.700132,420 315,412.736852 315,403.808516 L315,228.05407 C315,220.702734 311.686025,213.860422 305.905958,209.281805 Z M236,98 L271,98 L271,105 L236,105 L236,98 Z M236,115 L271,115 L271,127 L236,127 L236,115 Z M239.211533,137 L268.788467,137 C270.807472,142.918477 273.252799,152.049453 274,163 L234,163 C234.747201,152.049453 237.193179,142.918477 239.211533,137 Z M200,244.542082 L215.804282,244.542082 C218.518698,244.542082 220.718796,242.359966 220.718796,239.669188 C220.718796,236.97841 218.518042,234.796295 215.804282,234.796295 L200,234.796295 L200,228.270736 C200,223.891563 201.981923,219.815768 205.436694,217.088611 L233.988182,194.547661 C235.199612,193.592052 236.215143,192.401925 236.16928,190.867493 C236.126038,189.409718 235.724412,188.301445 234.599466,187.436784 C234.133632,186.562378 232.479299,182.792561 232.180537,173 L272.820118,173 C272.521356,182.79321 270.867023,186.562378 270.401189,187.437433 C269.275588,188.302094 268.873962,189.410367 268.831375,190.868143 C268.785512,192.402575 269.801043,193.592052 271.012473,194.548311 L299.563961,217.089261 C303.018732,219.817068 305,223.892213 305,228.271386 L305,234.796295 L238.672072,234.796295 C235.957657,234.796295 233.757558,236.97841 233.757558,239.669188 C233.757558,242.359966 235.958312,244.542082 238.672072,244.542082 L305,244.542082 L305,387 L200,387 L200,244.542082 Z M305,403.100512 C305,406.905026 302.070048,410 298.469194,410 L206.530806,410 C202.929952,410 200,406.905026 200,403.100512 L200,395 L305,395 L305,403.100512 Z" id="Shape" fill="#FFFFFF" fill-rule="nonzero" mask="url(#mask-2)"></path>
        <rect id="Rectangle" fill="#FFFFFF" mask="url(#mask-2)" x="197" y="279" width="112" height="86"></rect>
        <g id="skull" mask="url(#mask-2)">
            <g transform="translate(225.000000, 295.000000)">
                <path d="M27,5 C15.9720644,5 7,14.0468316 7,25.1666667 C7,31.7833768 10.1529356,37.8739583 15.4848485,41.6566407 L15.4848485,47.1666667 C15.4848485,48.1792968 16.298769,49 17.3030303,49 L21.5454545,49 L21.5454545,43.5 C21.5454545,42.4873698 22.359375,41.6666667 23.3636364,41.6666667 C24.3678977,41.6666667 25.1818182,42.4873698 25.1818182,43.5 L25.1818182,49 L28.8181818,49 L28.8181818,43.5 C28.8181818,42.4873698 29.6321023,41.6666667 30.6363636,41.6666667 C31.640625,41.6666667 32.4545455,42.4873698 32.4545455,43.5 L32.4545455,49 L36.6969697,49 C37.701231,49 38.5151515,48.1792968 38.5151515,47.1666667 L38.5151515,41.6566407 C43.8470644,37.8739583 47,31.7833768 47,25.1666667 C47,14.0468316 38.0279356,5 27,5 Z M19.7272727,29.5666667 C16.719697,29.5666667 14.2727273,27.0993056 14.2727273,24.0666667 C14.2727273,21.0340278 16.719697,18.5666667 19.7272727,18.5666667 C22.7348485,18.5666667 25.1818182,21.0340278 25.1818182,24.0666667 C25.1818182,27.0993056 22.7348485,29.5666667 19.7272727,29.5666667 Z M34.2727273,29.5666667 C31.2651515,29.5666667 28.8181818,27.0993056 28.8181818,24.0666667 C28.8181818,21.0340278 31.2651515,18.5666667 34.2727273,18.5666667 C37.280303,18.5666667 39.7272727,21.0340278 39.7272727,24.0666667 C39.7272727,27.0993056 37.280303,29.5666667 34.2727273,29.5666667 Z" id="Shape" fill="#D89226" fill-rule="nonzero"></path>
                <path d="M16.9318404,42.4610689 L16.9318404,38.8171218 C15.8271509,37.9593082 14.8032431,37.0155723 13.8727391,36 L8.65424247,40.8529619 C7.73434114,40.0674545 6.517567,39.5763362 5.17002761,39.5763362 C2.31439517,39.5763362 0,41.7286172 0,44.3842241 C0,47.039831 2.31439517,49.1921121 5.17002761,49.1921121 C5.17002761,51.8477189 7.48442278,54 10.3400552,54 C13.1951828,54 15.5100828,51.8477189 15.5100828,49.1921121 C15.5100828,47.9389624 14.9819725,46.8078879 14.1372991,45.9519524 L17,43.2897722 C16.9550652,43.0193285 16.9318404,42.7427811 16.9318404,42.4610689 Z" id="Path" fill="#D89226" fill-rule="nonzero"></path>
                <path d="M44.1482762,17 L47.2340714,13.9861025 C48.1658444,14.8217422 49.3983214,15.3442045 50.7632513,15.3442045 C53.6557367,15.3442045 56,13.054062 56,10.2294696 C56,7.40437783 53.6557367,5.11473482 50.7632513,5.11473482 C50.7632513,2.28964301 48.418988,0 45.5265026,0 C42.6340172,0 40.2897539,2.28964301 40.2897539,5.11473482 C40.2897539,6.44786245 40.8246796,7.65112389 41.6802539,8.56168645 L39,11.1794917 C41.0067383,12.8462759 42.7465254,14.8097546 44.1482762,17 L44.1482762,17 Z" id="Path" fill="#D89226" fill-rule="nonzero"></path>
                <rect id="Rectangle" fill="#FFFFFF" fill-rule="evenodd" x="22" y="42" width="4" height="7"></rect>
                <rect id="Rectangle" fill="#FFFFFF" fill-rule="evenodd" x="29" y="42" width="4" height="7"></rect>
                <path d="M49.8299724,39.5763362 C48.482433,39.5763362 47.2656589,40.0674545 46.3457575,40.8529619 L41.1272609,36 C40.1967569,37.0155723 39.1728491,37.9593082 38.0681596,38.8171218 L38.0681596,42.4610689 C38.0681596,42.7427811 38.0449348,43.0193285 38,43.2897722 L40.8627009,45.9519524 C40.0180275,46.8078879 39.4899172,47.9389624 39.4899172,49.1921121 C39.4899172,51.8477189 41.8048172,54 44.6599448,54 C47.5155772,54 49.8299724,51.8477189 49.8299724,49.1921121 C52.6856048,49.1921121 55,47.039831 55,44.3842241 C55,41.7286172 52.6856048,39.5763362 49.8299724,39.5763362 Z" id="Path" fill="#D89226" fill-rule="nonzero"></path>
                <path d="M5.23674871,15.3442045 C6.60167859,15.3442045 7.83415565,14.8217422 8.76592865,13.9861025 L11.8517238,17 C13.2534746,14.8097546 14.9932617,12.8462759 17,11.1794917 L14.3197461,8.56168645 C15.1753204,7.65112389 15.7102461,6.44786245 15.7102461,5.11473482 C15.7102461,2.28964301 13.3659828,0 10.4734974,0 C7.581012,0 5.23674871,2.28964301 5.23674871,5.11473482 C2.34426329,5.11473482 0,7.40437783 0,10.2294696 C0,13.054062 2.34426329,15.3442045 5.23674871,15.3442045 Z" id="Path" fill="#D89226" fill-rule="nonzero"></path>
            </g>
        </g>
        <line x1="197" y1="239.978867" x2="309" y2="240.021133" id="Path-2" stroke="#FFFFFF" stroke-width="13"></line>
    </g>
</svg>