<?xml version="1.0" encoding="UTF-8"?>
<svg width="508px" height="508px" viewBox="0 0 508 508" version="1.1" xmlns="http://www.w3.org/2000/svg" xmlns:xlink="http://www.w3.org/1999/xlink">
    <title>back</title>
    <g id="middleware" stroke="none" stroke-width="1" fill="none" fill-rule="evenodd">
        <g id="polygons" transform="translate(28.000000, 27.000000)">
            <polygon id="Triangle" fill="#1788B3" transform="translate(87.000000, 278.000000) rotate(-270.000000) translate(-87.000000, -278.000000) " points="87 234 175 322 -1 322"></polygon>
            <polygon id="Triangle" fill="#1788B3" transform="translate(87.000000, 366.000000) rotate(-90.000000) translate(-87.000000, -366.000000) " points="87 322 175 410 -1 410"></polygon>
            <polygon id="Triangle" fill="#CB0806" transform="translate(407.000000, 265.000000) rotate(-90.000000) translate(-407.000000, -265.000000) " points="407 221 495 309 319 309"></polygon>
            <polygon id="Triangle" fill="#FF0000" transform="translate(407.000000, 88.000000) rotate(-90.000000) translate(-407.000000, -88.000000) " points="407 44 495 132 319 132"></polygon>
            <polygon id="Triangle" fill="#E10709" transform="translate(407.000000, 176.000000) rotate(-270.000000) translate(-407.000000, -176.000000) " points="407 132 495 220 319 220"></polygon>
            <polygon id="Triangle" fill="#A7080A" transform="translate(407.000000, 366.000000) rotate(-270.000000) translate(-407.000000, -366.000000) " points="407 322 495 410 319 410"></polygon>
            <polygon id="Triangle" fill="#109ED3" transform="translate(87.000000, 189.000000) rotate(-90.000000) translate(-87.000000, -189.000000) " points="87 145 175 233 -1 233"></polygon>
            <polygon id="Triangle" fill="#10B0EC" transform="translate(87.000000, 88.000000) rotate(-270.000000) translate(-87.000000, -88.000000) " points="87 44 175 132 -1 132"></polygon>
            <polygon id="Triangle" fill="#D9BA06" transform="translate(232.697525, 289.586862) rotate(-45.000000) translate(-232.697525, -289.586862) " points="232.639462 245.425942 320.961302 333.747781 144.433748 333.631657"></polygon>
            <polygon id="Triangle" fill="#F4D002" transform="translate(294.960240, 227.324005) rotate(-225.000000) translate(-294.960240, -227.324005) " points="294.902177 183.163085 383.224016 271.484924 206.696463 271.368799"></polygon>
            <polygon id="Triangle" fill="#F8DA2C" transform="translate(357.224964, 164.899145) rotate(-45.000000) translate(-357.224964, -164.899145) " points="357.166902 120.738226 445.488741 209.060065 268.961188 208.94394"></polygon>
            <polygon id="Triangle" fill="#279D34" transform="translate(157.144293, 176.325852) rotate(-135.000000) translate(-157.144293, -176.325852) " points="157.202355 132.164933 245.408069 220.370647 68.8805159 220.486772"></polygon>
            <polygon id="Triangle" fill="#32B240" transform="translate(94.609209, 113.954994) rotate(-315.000000) translate(-94.609209, -113.954994) " points="94.667271 69.7940741 182.872985 157.999788 6.34543196 158.115913"></polygon>
            <polygon id="Triangle" fill="#2A8735" transform="translate(219.464691, 238.674286) rotate(-315.000000) translate(-219.464691, -238.674286) " points="219.522753 194.513366 307.728467 282.71908 131.200914 282.835205"></polygon>
        </g>
    </g>
</svg>